<svg width="84" height="102" viewBox="0 0 84 102" fill="none" xmlns="http://www.w3.org/2000/svg">
<path d="M15.0025 100.991C7.51063 101.747 0.788252 96.2912 0.0363443 88.8438C-0.696201 81.5881 9.90075 60.1115 10.3602 59.1933L10.7072 58.4479L11.1962 59.1089C11.83 59.9168 26.5059 78.8417 27.2385 86.0974C28.0226 93.5416 22.5265 100.231 15.0025 100.991ZM10.9009 60.3657C9.02121 64.2688 0.400607 82.4783 1.02989 88.7112C1.72693 95.6153 7.95397 100.669 14.8992 99.9682C21.8444 99.267 26.9355 93.0701 26.2385 86.1661C25.6124 79.9652 13.5581 63.843 10.9009 60.3657Z" fill="#19A8A3" fill-opacity="0.2"/>
<path d="M10.6408 52.6426L9.14756 49.1124L32.9466 34.5366L37.7773 46.0282L10.6408 52.6426ZM10.4243 49.5324L11.2353 51.4525L36.3397 45.3015L32.4488 36.0399L10.4243 49.5324Z" fill="#19A8A3" fill-opacity="0.2"/>
<path d="M39.3262 52.3619L29.4558 28.9156L50.0576 20.3132L50.3215 20.9969C50.3698 21.1535 50.4149 21.2781 50.4953 21.4314L59.5065 42.8011C59.5869 42.9544 59.6352 43.111 59.7156 43.2643L59.9602 43.7563L39.3262 52.3619ZM30.8097 29.457L39.8756 51.0472L58.5452 43.2533L58.4647 43.1L49.534 21.8837C49.4954 21.823 49.489 21.759 49.4504 21.6984L30.8097 29.457Z" fill="#19A8A3" fill-opacity="0.2"/>
<path d="M67.3093 48.342C63.8688 48.6893 60.479 46.9651 58.7897 43.7453C58.7093 43.5919 58.6289 43.4386 58.5452 43.2533L58.4615 43.0681L49.5308 21.8517C49.4504 21.6984 49.4021 21.5418 49.3506 21.3533L49.2572 21.0721C47.9534 16.8447 50.119 12.2347 54.2021 10.5309L79.5139 2.02656e-06L83.7446 41.9039L69.8139 47.7339C69.0005 48.0421 68.1774 48.2543 67.3093 48.342ZM50.2797 20.9043L50.3247 21.0289C50.373 21.1854 50.4181 21.3101 50.4985 21.4634L59.5097 42.8331C59.5901 42.9864 59.6384 43.143 59.7189 43.2963C61.5658 46.7908 65.7465 48.306 69.4567 46.769L82.6704 41.2374L78.6559 1.47506L54.5915 11.4926C50.9424 12.9911 49.05 17.0892 50.2411 20.8436L50.2797 20.9043Z" fill="#19A8A3" fill-opacity="0.2"/>
</svg>
