<svg width="115" height="124" viewBox="0 0 115 124" fill="none" xmlns="http://www.w3.org/2000/svg">
<path d="M76.0003 42.3893H39.1636V33.4738H42.8997V8.85015H39.1636V0H76.0003V14.108H64.6936V8.85015H56.2382V15.9694H67.5121V24.8849H56.2382V33.5065H64.6936V27.9874H76.0003V42.3893ZM40.2123 41.3442H74.9843V29.0324H65.7424V34.5188H55.1895V23.8399H66.4634V17.0145H55.1895V7.80511H65.7424V13.0629H74.9843V1.04504H40.2123V7.80511H43.9484V34.5188H40.2123V41.3442Z" fill="#19A8A3" fill-opacity="0.4"/>
<path d="M30.2494 85.3337H14.5839V79.0961H17.0091V63.1267H14.5839V56.9218H39.1636V66.621H31.1342V63.1267H26.2183V68.907H33.6905V75.1446H26.2511V79.0961H30.2494V85.3337ZM15.5999 84.2887H29.2006V80.1085H25.2023V74.0995H32.6745V69.9194H25.2023V62.049H32.183V65.5433H38.1148V57.9015H15.5999V62.049H18.0251V80.1085H15.5999V84.2887Z" fill="#19A8A3" fill-opacity="0.4"/>
<path d="M89.1422 85.3337H75.4431V79.1288H77.6389V63.0614H75.4431V56.8891H88.7162C96.5816 56.8891 100.088 59.6323 100.088 65.8046C100.088 70.8338 95.8279 74.0995 89.2078 74.0995H86.7498V79.1288H89.1422V85.3337ZM76.4591 84.3213H88.0935V80.1738H85.701V73.0545H89.2078C93.7304 73.0545 99.0396 71.1604 99.0396 65.8046C99.0396 61.9184 97.827 57.9342 88.6834 57.9342H76.4591V62.049H78.6549V80.1738H76.4591V84.3213ZM87.9952 69.8541H85.701V61.9837H88.1918C90.8136 61.9837 92.3867 63.5186 92.3867 66.0658C92.3539 68.3845 90.6498 69.8541 87.9952 69.8541ZM86.7498 68.8091H87.9952C90.0926 68.8091 91.338 67.7967 91.338 66.0658C91.338 64.0737 90.2565 63.0287 88.1918 63.0287H86.7498V68.8091Z" fill="#19A8A3" fill-opacity="0.4"/>
<path d="M15.5343 123.51H4.19493V118.807H6.45626V107.867H5.11257V111.394H0V103.165H19.6309V111.394H14.5184V107.867H13.2402V118.807H15.5343V123.51ZM5.21089 122.465H14.4856V119.853H12.1915V106.822H15.5671V110.349H18.615V104.21H1.04873V110.349H4.09661V106.822H7.50499V119.853H5.24366V122.465H5.21089Z" fill="#19A8A3" fill-opacity="0.4"/>
<path d="M57.6802 124C51.1584 124 47.2257 119.983 47.2257 113.223C47.2257 106.986 51.4534 102.609 57.4836 102.609C64.1365 102.609 67.9382 106.528 67.9382 113.386C67.9382 120.048 64.1037 124 57.6802 124ZM57.4836 103.687C52.0761 103.687 48.2744 107.606 48.2744 113.256C48.2744 119.428 51.7156 122.988 57.6802 122.988C63.5466 122.988 66.9222 119.526 66.9222 113.452C66.9222 107.149 63.5794 103.687 57.4836 103.687ZM57.6802 119.689C55.5172 119.689 54.0752 117.109 54.0752 113.256C54.0752 110.741 54.6979 108.684 55.7467 107.639C56.2382 107.149 56.8282 106.92 57.4508 106.92C59.7122 106.92 61.0231 109.304 61.0231 113.452C61.0231 117.273 59.7449 119.689 57.6802 119.689ZM57.4508 107.933C57.0903 107.933 56.7954 108.063 56.5004 108.357C55.6483 109.174 55.1567 111.002 55.1567 113.223C55.1567 116.391 56.2055 118.612 57.713 118.612C59.0895 118.612 60.0071 116.521 60.0071 113.419C59.9744 112.145 59.8105 107.933 57.4508 107.933Z" fill="#19A8A3" fill-opacity="0.4"/>
<path d="M114.934 123.51H95.5657V119.199L105.07 107.835L101.465 107.867L101.498 111.46H95.7296V103.165H114.934L115 107.541L105.463 118.807H108.97L109.003 115.28H114.934V123.51ZM96.6144 122.465H113.886V116.326H110.019L109.986 119.853H103.235L113.984 107.149L113.951 104.177H96.8111V110.415H100.482L100.449 106.822L107.331 106.79L96.6472 119.559V122.465H96.6144Z" fill="#19A8A3" fill-opacity="0.4"/>
</svg>
